/* XPM */
static char *x[] = {
/* columns rows colors chars-per-pixel */
"16 16 47 1",
"  c #000000",
". c #0A0202",
"X c #0D0100",
"o c #1A0603",
"O c #240C09",
"+ c #300802",
"@ c #6F1409",
"# c #701409",
"$ c #7C332B",
"% c #7D3D35",
"& c #8C1202",
"* c #B91D09",
"= c #AC2312",
"- c #CF2510",
"; c #D12610",
": c #D52C16",
"> c #D8321D",
", c #C33C29",
"< c #C33C2A",
"1 c #D03320",
"2 c #DC3823",
"3 c #DF3F2A",
"4 c #C6402F",
"5 c #DF4A37",
"6 c #E34530",
"7 c #E14A36",
"8 c #E64B37",
"9 c #E0503C",
"0 c #EA513D",
"q c #EA533F",
"w c #AC4F45",
"e c #B7655A",
"r c #BF665B",
"t c #EE5743",
"y c #C0675C",
"u c #DC6253",
"i c #D5685B",
"p c #EF614E",
"a c #E26A5C",
"s c #EE6F5E",
"d c #E46F60",
"f c #F47C6D",
"g c #F17F71",
"h c #EA8375",
"j c #EA8476",
"k c #F18072",
"l c None",
/* pixels */
"llllllllllllllll",
"llllellllllellll",
"llljfjllllhfjlll",
"lrkptpkyygptpkrl",
"l%90000sst0009%l",
"llO4888  8884Oll",
"lll.,66ll66,.lll",
"llli733ll337illl",
"lwa5222ll2225awl",
"l$1>>>>dd>>>>1$l",
"llo=:::  :::=oll",
"llll@-;ll;-#llll",
"lllll+*uu*+lllll",
"llllllX&&Xllllll",
"llllllllllllllll",
"llllllllllllllll"
};
