/* XPM */
static char *locked[] = {
/* columns rows colors chars-per-pixel */
"22 22 5 1",
"  c #000000",
". c #020202",
"X c #030303",
"o c #040404",
"O c None",
/* pixels */
"OOOOOOOOOOOOOOOOOOOOOO",
"OOOOOOOOOOOOOOOOOOOOOO",
"OOOOOOOOOOOOOOOOOOOOOO",
"OOOOOOOOo     OOOOOOOO",
"OOOOOOO       oOOOOOOO",
"OOOOOOO  OOOO  OOOOOOO",
"OOOOOOO  OOOO  OOOOOOO",
"OOOOOOO  OOOO  OOOOOOO",
"OOOOOOO  OOOO  OOOOOOO",
"OOOOOOo        oOOOOOO",
"OOOOOo          oOOOOO",
"OOOOO            OOOOO",
"OOOOO            OOOOO",
"OOOOO            OOOOO",
"OOOOO            OOOOO",
"OOOOO            OOOOO",
"OOOOO            OOOOO",
"OOOOOO          OOOOOO",
"OOOOOOOOOOOOOOOOOOOOOO",
"OOOOOOOOOOOOOOOOOOOOOO",
"OOOOOOOOOOOOOOOOOOOOOO",
"OOOOOOOOOOOOOOOOOOOOOO"
};
