/* XPM */
static char *x[] = {
/* columns rows colors chars-per-pixel */
"16 16 39 1",
"  c #790908",
". c #790A08",
"X c #7E0C09",
"o c #800D09",
"O c #890B08",
"+ c #95140D",
"@ c #841D12",
"# c #8D1D13",
"$ c #8E1F15",
"% c #8B1F1F",
"& c #8D1D1C",
"* c #8C1E1C",
"= c #AD140E",
"- c #BB1610",
"; c #BE1C13",
": c #8C2517",
"> c #BD2C1C",
", c #A1352A",
"< c #C11C13",
"1 c #C02017",
"2 c #C72217",
"3 c #C32A1B",
"4 c #CC281A",
"5 c #D22E1E",
"6 c #CB3128",
"7 c #D73421",
"8 c #DD3A25",
"9 c #D0372A",
"0 c #D63C29",
"q c #E33F28",
"w c #E8452C",
"e c #E8462D",
"r c #E7523E",
"t c #EF5338",
"y c #B25A54",
"u c #B96057",
"i c #F57057",
"p c #F0806F",
"a c None",
/* pixels */
"aaaaaaaaaaaaaaaa",
"aaaa*aaaaaa%aaaa",
"aaa O aaaa O aaa",
"a*X=-=o**o=-=X*a",
"ay1<<<;++<<<<1ya",
"aaa6222aa2226aaa",
"aaaa944aa449aaaa",
"aaa$355aa553:aaa",
"a,$>777aa777>$,a",
"ay08888@@88880ua",
"aaarqqqaaqqqraaa",
"aaaapwwaawwpaaaa",
"aaaaaat::taaaaaa",
"aaaaaaaiiaaaaaaa",
"aaaaaaaaaaaaaaaa",
"aaaaaaaaaaaaaaaa"
};
