<?xml version="1.0" encoding="UTF-8" standalone="no"?>
<!-- Created with Inkscape (http://www.inkscape.org/) -->

<svg
   xmlns:dc="http://purl.org/dc/elements/1.1/"
   xmlns:cc="http://creativecommons.org/ns#"
   xmlns:rdf="http://www.w3.org/1999/02/22-rdf-syntax-ns#"
   xmlns:svg="http://www.w3.org/2000/svg"
   xmlns="http://www.w3.org/2000/svg"
   xmlns:xlink="http://www.w3.org/1999/xlink"
   xmlns:inkscape="http://www.inkscape.org/namespaces/inkscape"
   version="1.0"
   width="96"
   height="96"
   id="svg2408">
  <defs
     id="defs2410">
    <linearGradient
       x1="45.447727"
       y1="92.539597"
       x2="45.447727"
       y2="7.0165396"
       id="ButtonShadow"
       gradientUnits="userSpaceOnUse"
       gradientTransform="scale(1.0058652,0.994169)">
      <stop
         id="stop3750"
         style="stop-color:#000000;stop-opacity:1"
         offset="0" />
      <stop
         id="stop3752"
         style="stop-color:#000000;stop-opacity:0.58823532"
         offset="1" />
    </linearGradient>
    <linearGradient
       id="linearGradient3737">
      <stop
         id="stop3739"
         style="stop-color:#ffffff;stop-opacity:1"
         offset="0" />
      <stop
         id="stop3741"
         style="stop-color:#ffffff;stop-opacity:0"
         offset="1" />
    </linearGradient>
    <linearGradient
       id="linearGradient3700">
      <stop
         id="stop3702"
         style="stop-color:#7fb718;stop-opacity:1"
         offset="0" />
      <stop
         id="stop3704"
         style="stop-color:#7fb718;stop-opacity:1"
         offset="1" />
    </linearGradient>
    <linearGradient
       x1="48"
       y1="90"
       x2="48"
       y2="5.9877172"
       id="linearGradient3706"
       xlink:href="#linearGradient3700"
       gradientUnits="userSpaceOnUse" />
    <filter
       color-interpolation-filters="sRGB"
       id="filter3174">
      <feGaussianBlur
         id="feGaussianBlur3176"
         stdDeviation="1.71" />
    </filter>
    <linearGradient
       x1="36.357143"
       y1="6"
       x2="36.357143"
       y2="63.893143"
       id="linearGradient3188"
       xlink:href="#linearGradient3737"
       gradientUnits="userSpaceOnUse" />
    <linearGradient
       id="linearGradient3737-6">
      <stop
         id="stop3739-1"
         style="stop-color:#ffffff;stop-opacity:1"
         offset="0" />
      <stop
         id="stop3741-0"
         style="stop-color:#ffffff;stop-opacity:0"
         offset="1" />
    </linearGradient>
    <radialGradient
       cx="48"
       cy="90.171875"
       r="42"
       fx="48"
       fy="90.171875"
       id="radialGradient2874"
       xlink:href="#linearGradient3737-6"
       gradientUnits="userSpaceOnUse"
       gradientTransform="matrix(1.1573129,0,0,0.99590774,-7.551021,0.1971319)" />
    <linearGradient
       id="linearGradient3737-9">
      <stop
         id="stop3739-7"
         style="stop-color:#ffffff;stop-opacity:1"
         offset="0" />
      <stop
         id="stop3741-7"
         style="stop-color:#ffffff;stop-opacity:0"
         offset="1" />
    </linearGradient>
    <clipPath
       id="clipPath3613">
      <rect
         width="84"
         height="84"
         rx="6"
         ry="6"
         x="6"
         y="6"
         id="rect3615"
         style="fill:#ffffff;fill-opacity:1;fill-rule:nonzero;stroke:none" />
    </clipPath>
    <filter
       x="-0.192"
       y="-0.192"
       width="1.3839999"
       height="1.3839999"
       color-interpolation-filters="sRGB"
       id="filter3794-6">
      <feGaussianBlur
         id="feGaussianBlur3796-7"
         stdDeviation="5.28" />
    </filter>
    <linearGradient
       x1="48"
       y1="20.220806"
       x2="48"
       y2="138.66119"
       id="linearGradient2908"
       xlink:href="#linearGradient3737-9"
       gradientUnits="userSpaceOnUse" />
    <linearGradient
       x1="45.447727"
       y1="92.539597"
       x2="45.447727"
       y2="7.0165396"
       id="ButtonShadow-0"
       gradientUnits="userSpaceOnUse"
       gradientTransform="matrix(1.0058652,0,0,0.994169,100,0)">
      <stop
         id="stop3750-8"
         style="stop-color:#000000;stop-opacity:1"
         offset="0" />
      <stop
         id="stop3752-5"
         style="stop-color:#000000;stop-opacity:0.58823532"
         offset="1" />
    </linearGradient>
    <linearGradient
       x1="32.251034"
       y1="6.1317081"
       x2="32.251034"
       y2="90.238609"
       id="linearGradient3780"
       xlink:href="#ButtonShadow-0"
       gradientUnits="userSpaceOnUse"
       gradientTransform="matrix(1.0238095,0,0,1.0119048,-1.1428571,-98.071429)" />
    <linearGradient
       x1="32.251034"
       y1="6.1317081"
       x2="32.251034"
       y2="90.238609"
       id="linearGradient3772"
       xlink:href="#ButtonShadow-0"
       gradientUnits="userSpaceOnUse"
       gradientTransform="matrix(1.0238095,0,0,1.0119048,-1.1428571,-98.071429)" />
    <linearGradient
       x1="32.251034"
       y1="6.1317081"
       x2="32.251034"
       y2="90.238609"
       id="linearGradient3725"
       xlink:href="#ButtonShadow-0"
       gradientUnits="userSpaceOnUse"
       gradientTransform="matrix(1.0238095,0,0,1.0119048,-1.1428571,-98.071429)" />
    <linearGradient
       x1="32.251034"
       y1="6.1317081"
       x2="32.251034"
       y2="90.238609"
       id="linearGradient3721"
       xlink:href="#ButtonShadow-0"
       gradientUnits="userSpaceOnUse"
       gradientTransform="translate(0,-97)" />
    <linearGradient
       x1="32.251034"
       y1="6.1317081"
       x2="32.251034"
       y2="90.238609"
       id="linearGradient3020"
       xlink:href="#ButtonShadow-0"
       gradientUnits="userSpaceOnUse"
       gradientTransform="matrix(1.0238095,0,0,1.0119048,-1.1428571,-98.071429)" />
  </defs>
  <metadata
     id="metadata2413">
    <rdf:RDF>
      <cc:Work
         rdf:about="">
        <dc:format>image/svg+xml</dc:format>
        <dc:type
           rdf:resource="http://purl.org/dc/dcmitype/StillImage" />
      </cc:Work>
    </rdf:RDF>
  </metadata>
  <g
     id="layer2"
     style="display:none">
    <rect
       width="86"
       height="85"
       rx="6"
       ry="6"
       x="5"
       y="7"
       id="rect3745"
       style="opacity:0.9;fill:url(#ButtonShadow);fill-opacity:1;fill-rule:nonzero;stroke:none;filter:url(#filter3174)" />
  </g>
  <g
     id="layer4"
     style="display:inline">
    <path
       d="m 12,-95.03125 c -5.5110903,0 -10.03125,4.52016 -10.03125,10.03125 l 0,71 c 0,5.5110902 4.5201598,10.03125 10.03125,10.03125 l 72,0 c 5.51109,0 10.03125,-4.5201597 10.03125,-10.03125 l 0,-71 c 0,-5.51109 -4.52016,-10.03125 -10.03125,-10.03125 l -72,0 z"
       transform="scale(1,-1)"
       id="path3786"
       style="opacity:0.07999998;fill:url(#linearGradient3020);fill-opacity:1;fill-rule:nonzero;stroke:none;display:inline" />
    <path
       d="m 12,-94.03125 c -4.971633,0 -9.03125,4.059617 -9.03125,9.03125 l 0,71 c 0,4.9716329 4.0596171,9.03125 9.03125,9.03125 l 72,0 c 4.971633,0 9.03125,-4.059617 9.03125,-9.03125 l 0,-71 c 0,-4.971633 -4.059617,-9.03125 -9.03125,-9.03125 l -72,0 z"
       transform="scale(1,-1)"
       id="path3778"
       style="opacity:0.1;fill:url(#linearGradient3780);fill-opacity:1;fill-rule:nonzero;stroke:none;display:inline" />
    <path
       d="m 12,-93 c -4.4091333,0 -8,3.590867 -8,8 l 0,71 c 0,4.4091333 3.5908667,8 8,8 l 72,0 c 4.409133,0 8,-3.5908667 8,-8 l 0,-71 c 0,-4.409133 -3.590867,-8 -8,-8 l -72,0 z"
       transform="scale(1,-1)"
       id="path3770"
       style="opacity:0.2;fill:url(#linearGradient3772);fill-opacity:1;fill-rule:nonzero;stroke:none;display:inline" />
    <rect
       width="86"
       height="85"
       rx="7"
       ry="7"
       x="5"
       y="-92"
       transform="scale(1,-1)"
       id="rect3723"
       style="opacity:0.3;fill:url(#linearGradient3725);fill-opacity:1;fill-rule:nonzero;stroke:none;display:inline" />
    <rect
       width="84"
       height="84"
       rx="6"
       ry="6"
       x="6"
       y="-91"
       transform="scale(1,-1)"
       id="rect3716"
       style="opacity:0.45;fill:url(#linearGradient3721);fill-opacity:1;fill-rule:nonzero;stroke:none;display:inline" />
  </g>
  <g
     id="layer1">
    <rect
       width="84"
       height="84"
       rx="6"
       ry="6"
       x="6"
       y="6"
       id="rect2419"
       style="fill:url(#linearGradient3706);fill-opacity:1;fill-rule:nonzero;stroke:none" />
    <path
       d="M 12,6 C 8.676,6 6,8.676 6,12 l 0,2 0,68 0,2 c 0,0.334721 0.04135,0.6507 0.09375,0.96875 0.0487,0.295596 0.09704,0.596915 0.1875,0.875 0.00988,0.03038 0.020892,0.0636 0.03125,0.09375 0.098865,0.287771 0.2348802,0.547452 0.375,0.8125 0.1445918,0.273507 0.3156161,0.535615 0.5,0.78125 0.1843839,0.245635 0.3737765,0.473472 0.59375,0.6875 0.439947,0.428056 0.94291,0.814526 1.5,1.09375 0.278545,0.139612 0.5734731,0.246947 0.875,0.34375 -0.2562018,-0.100222 -0.4867109,-0.236272 -0.71875,-0.375 -0.00741,-0.0044 -0.023866,0.0045 -0.03125,0 -0.031933,-0.0193 -0.062293,-0.04251 -0.09375,-0.0625 -0.120395,-0.0767 -0.2310226,-0.163513 -0.34375,-0.25 -0.1061728,-0.0808 -0.2132809,-0.161112 -0.3125,-0.25 C 8.4783201,88.557317 8.3087904,88.373362 8.15625,88.1875 8.0486711,88.057245 7.9378561,87.922215 7.84375,87.78125 7.818661,87.74287 7.805304,87.69538 7.78125,87.65625 7.716487,87.553218 7.6510225,87.451733 7.59375,87.34375 7.4927417,87.149044 7.3880752,86.928049 7.3125,86.71875 7.30454,86.69694 7.288911,86.6782 7.28125,86.65625 7.2494249,86.5643 7.2454455,86.469419 7.21875,86.375 7.1884177,86.268382 7.1483606,86.171969 7.125,86.0625 7.0521214,85.720988 7,85.364295 7,85 L 7,83 7,15 7,13 C 7,10.218152 9.2181517,8 12,8 l 2,0 68,0 2,0 c 2.781848,0 5,2.218152 5,5 l 0,2 0,68 0,2 c 0,0.364295 -0.05212,0.720988 -0.125,1.0625 -0.04415,0.206893 -0.08838,0.397658 -0.15625,0.59375 -0.0077,0.02195 -0.0233,0.04069 -0.03125,0.0625 -0.06274,0.173739 -0.138383,0.367449 -0.21875,0.53125 -0.04158,0.0828 -0.07904,0.169954 -0.125,0.25 -0.0546,0.09721 -0.126774,0.18835 -0.1875,0.28125 -0.09411,0.140965 -0.204921,0.275995 -0.3125,0.40625 -0.143174,0.17445 -0.303141,0.346998 -0.46875,0.5 -0.01117,0.0102 -0.01998,0.02115 -0.03125,0.03125 -0.138386,0.125556 -0.285091,0.234436 -0.4375,0.34375 -0.102571,0.07315 -0.204318,0.153364 -0.3125,0.21875 -0.0074,0.0045 -0.02384,-0.0044 -0.03125,0 -0.232039,0.138728 -0.462548,0.274778 -0.71875,0.375 0.301527,-0.0968 0.596455,-0.204138 0.875,-0.34375 0.55709,-0.279224 1.060053,-0.665694 1.5,-1.09375 0.219973,-0.214028 0.409366,-0.441865 0.59375,-0.6875 0.184384,-0.245635 0.355408,-0.507743 0.5,-0.78125 0.14012,-0.265048 0.276135,-0.524729 0.375,-0.8125 0.01041,-0.03078 0.02133,-0.06274 0.03125,-0.09375 0.09046,-0.278085 0.1388,-0.579404 0.1875,-0.875 C 89.95865,84.6507 90,84.334721 90,84 l 0,-2 0,-68 0,-2 C 90,8.676 87.324,6 84,6 L 12,6 z"
       inkscape:connector-curvature="0"
       id="rect3728"
       style="opacity:0.5;fill:url(#linearGradient3188);fill-opacity:1;fill-rule:nonzero;stroke:none" />
    <path
       d="M 12,90 C 8.676,90 6,87.324 6,84 L 6,82 6,14 6,12 c 0,-0.334721 0.04135,-0.6507 0.09375,-0.96875 0.0487,-0.295596 0.09704,-0.596915 0.1875,-0.875 C 6.29113,10.12587 6.302142,10.09265 6.3125,10.0625 6.411365,9.774729 6.5473802,9.515048 6.6875,9.25 6.8320918,8.976493 7.0031161,8.714385 7.1875,8.46875 7.3718839,8.223115 7.5612765,7.995278 7.78125,7.78125 8.221197,7.353194 8.72416,6.966724 9.28125,6.6875 9.559795,6.547888 9.8547231,6.440553 10.15625,6.34375 9.9000482,6.443972 9.6695391,6.580022 9.4375,6.71875 c -0.00741,0.0044 -0.023866,-0.0045 -0.03125,0 -0.031933,0.0193 -0.062293,0.04251 -0.09375,0.0625 -0.120395,0.0767 -0.2310226,0.163513 -0.34375,0.25 -0.1061728,0.0808 -0.2132809,0.161112 -0.3125,0.25 C 8.4783201,7.442683 8.3087904,7.626638 8.15625,7.8125 8.0486711,7.942755 7.9378561,8.077785 7.84375,8.21875 7.818661,8.25713 7.805304,8.30462 7.78125,8.34375 7.716487,8.446782 7.6510225,8.548267 7.59375,8.65625 7.4927417,8.850956 7.3880752,9.071951 7.3125,9.28125 7.30454,9.30306 7.288911,9.3218 7.28125,9.34375 7.2494249,9.4357 7.2454455,9.530581 7.21875,9.625 7.1884177,9.731618 7.1483606,9.828031 7.125,9.9375 7.0521214,10.279012 7,10.635705 7,11 l 0,2 0,68 0,2 c 0,2.781848 2.2181517,5 5,5 l 2,0 68,0 2,0 c 2.781848,0 5,-2.218152 5,-5 l 0,-2 0,-68 0,-2 C 89,10.635705 88.94788,10.279012 88.875,9.9375 88.83085,9.730607 88.78662,9.539842 88.71875,9.34375 88.71105,9.3218 88.69545,9.30306 88.6875,9.28125 88.62476,9.107511 88.549117,8.913801 88.46875,8.75 88.42717,8.6672 88.38971,8.580046 88.34375,8.5 88.28915,8.40279 88.216976,8.31165 88.15625,8.21875 88.06214,8.077785 87.951329,7.942755 87.84375,7.8125 87.700576,7.63805 87.540609,7.465502 87.375,7.3125 87.36383,7.3023 87.35502,7.29135 87.34375,7.28125 87.205364,7.155694 87.058659,7.046814 86.90625,6.9375 86.803679,6.86435 86.701932,6.784136 86.59375,6.71875 c -0.0074,-0.0045 -0.02384,0.0044 -0.03125,0 -0.232039,-0.138728 -0.462548,-0.274778 -0.71875,-0.375 0.301527,0.0968 0.596455,0.204138 0.875,0.34375 0.55709,0.279224 1.060053,0.665694 1.5,1.09375 0.219973,0.214028 0.409366,0.441865 0.59375,0.6875 0.184384,0.245635 0.355408,0.507743 0.5,0.78125 0.14012,0.265048 0.276135,0.524729 0.375,0.8125 0.01041,0.03078 0.02133,0.06274 0.03125,0.09375 0.09046,0.278085 0.1388,0.579404 0.1875,0.875 C 89.95865,11.3493 90,11.665279 90,12 l 0,2 0,68 0,2 c 0,3.324 -2.676,6 -6,6 l -72,0 z"
       inkscape:connector-curvature="0"
       id="path3615"
       style="opacity:0.25;fill:url(#radialGradient2874);fill-opacity:1;fill-rule:nonzero;stroke:none" />
  </g>
  <g
     id="layer5"
     style="display:inline">
    <rect
       width="66"
       height="66"
       rx="12"
       ry="12"
       x="15"
       y="15"
       clip-path="url(#clipPath3613)"
       id="rect3171"
       style="opacity:0.15;fill:url(#linearGradient2908);fill-opacity:1;fill-rule:nonzero;stroke:#ffffff;stroke-width:0.5;stroke-linecap:round;stroke-linejoin:miter;stroke-miterlimit:4;stroke-opacity:1;stroke-dasharray:none;stroke-dashoffset:0;filter:url(#filter3794-6)" />
  </g>
  <g
     id="layer3">
    <path
       d="m 70.78125,58.53125 -1.8125,0.03125 a 1.4243847,1.4243847 0 0 0 -0.03125,0 c -0.855093,0.0351 -1.37479,0.0635 -1.96875,0.25 -0.59396,0.186498 -1.083807,0.635292 -1.34375,0.9375 -0.272715,0.317048 -0.584296,0.826677 -0.71875,1.375 C 64.771796,61.673323 64.75,62.178504 64.75,62.9375 l 0,0.25 -0.46875,0 a 1.4243847,1.4243847 0 0 0 -0.21875,0.03125 l 0,-0.90625 0,-1.0625 A 1.4243847,1.4243847 0 0 0 62.625,59.8125 l -1.15625,0 -1.15625,0 A 1.4243847,1.4243847 0 0 0 58.875,61.25 l 0,0.9375 c 0,0.283236 -0.004,0.532297 0.0625,0.875 0.0068,0.03484 0.05279,0.08727 0.0625,0.125 A 1.4243847,1.4243847 0 0 0 58.5625,63.28125 1.4243847,1.4243847 0 0 0 58.125,63.1875 l -1.21875,0 0,-0.25 0,-1.6875 a 1.4243847,1.4243847 0 0 0 -1.4375,-1.4375 l -1.15625,0 -1.15625,0 a 1.4243847,1.4243847 0 0 0 -1.4375,1.5 l 0.0625,1.5625 0,0.0625 0,0.28125 c -0.04154,0.0053 -0.08006,-0.0072 -0.125,0 -0.06277,0.01 -0.199255,0.107189 -0.28125,0.125 -1.129438,-2.145523 -3.283256,-3.526448 -5.8125,-3.5625 -3.065324,-0.04372 -5.698297,1.893497 -6.625,4.90625 -0.0032,0.01038 0.0032,0.02086 0,0.03125 -1.03782,-1.049242 -2.426741,-1.749069 -4,-1.75 -0.965526,-5.83e-4 -1.823734,0.254851 -2.59375,0.625 a 1.4243847,1.4243847 0 0 0 -1,-0.40625 l -1.8125,0 -1.1875,0 0,-1.0625 a 1.4243847,1.4243847 0 0 0 -1.4375,-1.46875 l -0.9375,0 c -0.468266,0 -0.797156,-0.189736 -1.59375,0.3125 -0.114557,0.07223 -0.125636,0.206652 -0.21875,0.3125 -1.103012,-0.621433 -2.315315,-0.993008 -3.53125,-0.9375 -1.858615,0.08488 -3.68209,0.936012 -4.875,2.5 -0.633992,0.8312 -0.903586,1.822487 -0.96875,2.8125 -0.06516,0.990013 0.06082,2.015383 0.53125,2.9375 0.495294,0.970864 1.28475,1.819604 2.3125,2.34375 1.02775,0.524146 2.212749,0.765201 3.8125,0.96875 0.443296,0.0564 0.935743,0.140661 1.3125,0.21875 0.376757,0.07809 0.727624,0.21039 0.5625,0.125 0.36055,0.186447 0.438968,0.395612 0.46875,0.53125 0.02978,0.135638 0.0399,0.292249 -0.1875,0.5625 -0.359745,0.427534 -0.96274,0.607861 -1.75,0.46875 C 21.05649,73.673389 20.225127,73.175021 19.75,72.40625 19.513427,72.023488 19.234371,71.552831 18.625,71.25 18.015629,70.947169 17.535041,70.96875 17.03125,70.96875 l -1.03125,0 a 1.4243847,1.4243847 0 0 0 -1.4375,1.4375 l 0,2.40625 c 0,0.703361 0.05041,1.374724 0.09375,1.9375 0.02167,0.281388 0.02823,0.554627 0.0625,0.78125 0.03427,0.226623 -0.009,0.328581 0.25,0.8125 0.517904,0.967672 1.261502,1.062195 1.90625,1.125 0.322374,0.0314 0.666705,0.04093 1.03125,-0.0625 0.364545,-0.103429 0.802404,-0.307493 1.125,-0.8125 0.220866,-0.345751 0.211719,-0.475206 0.25,-0.625 0.01102,-0.04311 0.02177,-0.08253 0.03125,-0.125 1.038003,0.60941 2.141935,1.03125 3.40625,1.03125 1.448005,0 2.704439,-0.511641 3.78125,-1.28125 -0.206367,0.505767 -0.1875,0.846078 -0.1875,1.21875 l 0,0.9375 a 1.4243847,1.4243847 0 0 0 1.4375,1.4375 l 2.53125,0 2.53125,0 a 1.4243847,1.4243847 0 0 0 1.40625,-1.53125 L 34.15625,78.75 c -0.02385,-0.329768 -0.121396,-0.728952 -0.3125,-1.15625 2.202261,0.412271 4.636317,-0.470039 5.9375,-2.53125 0.480469,-0.761112 0.730878,-1.591048 0.90625,-2.5 0.768809,0.80856 1.678055,1.471528 2.8125,1.84375 0.872783,0.286371 1.663498,0.22407 2.53125,0.125 0.867752,-0.09907 1.706469,-0.236158 2.46875,-0.625 1.595115,-0.813769 2.679419,-2.274468 3.28125,-3.9375 l 0,0.40625 c 0.04301,2.188431 0.05305,3.382027 0.34375,4.4375 0.2907,1.055473 1.2202,1.84822 1.96875,2.21875 0.873864,0.432566 1.789983,0.556048 2.65625,0.5625 0.433133,0.0032 0.842664,-0.02692 1.28125,-0.15625 0.06545,-0.0193 0.150318,-0.06833 0.21875,-0.09375 a 1.4243847,1.4243847 0 0 0 0.8125,0.25 l 2.40625,0 2.4375,0 a 1.4243847,1.4243847 0 0 0 0.5,-0.09375 1.4243847,1.4243847 0 0 0 0.5625,0.125 L 67.4375,77.5625 69.90625,77.5 a 1.4243847,1.4243847 0 0 0 1.375,-1.34375 l 0.0625,-0.90625 0.0625,-0.875 A 1.4243847,1.4243847 0 0 0 70,72.84375 l -0.03125,0 0,-2.46875 0,-2.40625 0.375,0 1.5,4 1.625,4.375 -0.09375,0.21875 c -0.01068,0.02183 0.0088,0.01369 0,0.03125 0.01012,-0.01544 0.06844,-0.05138 -0.28125,-0.03125 a 1.4243847,1.4243847 0 0 0 -0.03125,0.03125 l -1.125,0.09375 a 1.4243847,1.4243847 0 0 0 -1.3125,1.40625 l 0,0.9375 0,0.96875 a 1.4243847,1.4243847 0 0 0 1.5,1.4375 l 1.71875,-0.09375 c 0.686723,-0.03121 1.170301,-0.0809 1.65625,-0.1875 0.485949,-0.106598 1.017294,-0.392294 1.34375,-0.71875 0.294559,-0.294567 0.326787,-0.379839 0.40625,-0.53125 0.07946,-0.151411 0.136055,-0.311167 0.21875,-0.5 0.16539,-0.377666 0.370444,-0.877895 0.59375,-1.46875 0.446611,-1.181711 0.99458,-2.794725 1.625,-4.6875 0.933611,-2.803081 1.463859,-4.356947 1.78125,-5.125 0.158695,-0.384026 0.301627,-0.558371 0.28125,-0.53125 -0.02038,0.02712 -0.367776,0.250319 -0.5,0.28125 0.206947,-0.04841 0.494071,-0.325642 0.78125,-0.53125 0.286641,0.196131 0.62951,0.375 0.90625,0.375 0.187924,0 0.321129,-0.149003 0.5,-0.21875 0.04071,0.02425 0.04545,0.03951 0.09375,0.0625 0.268338,0.127693 0.709408,0.200015 1.0625,0.09375 0.02432,-0.0073 0.0082,-0.0234 0.03125,-0.03125 0.119406,0.03326 0.131989,0.09375 0.3125,0.09375 0.08381,0 0.107832,-0.07855 0.1875,-0.09375 0.317112,0.129407 0.598846,0.324618 0.96875,0.1875 0.585896,-0.217183 0.750665,-0.559245 0.84375,-0.75 0.18617,-0.381509 0.163016,-0.559376 0.1875,-0.78125 0.02448,-0.221874 0.0625,-0.45246 0.0625,-0.71875 0,-0.481023 -0.05609,-0.907323 -0.28125,-1.375 -0.112578,-0.233838 -0.275909,-0.486908 -0.625,-0.71875 -0.349091,-0.231842 -0.932371,-0.335726 -1.375,-0.1875 -0.04426,0.01482 -0.05274,0.04596 -0.09375,0.0625 -0.321833,-0.123418 -0.76878,-0.200019 -1.125,-0.0625 -0.02676,0.01033 -0.0372,0.0203 -0.0625,0.03125 -0.243571,-0.04419 -0.512936,-0.125 -0.71875,-0.125 -0.20863,0 -0.492726,0.107202 -0.75,0.15625 a 1.4243847,1.4243847 0 0 0 -0.03125,0 1.4243847,1.4243847 0 0 0 -0.5625,-0.15625 l -2.21875,0 -2.21875,0 a 1.4243847,1.4243847 0 0 0 -1.25,0.75 1.4243847,1.4243847 0 0 0 -1.25,-0.75 l -3.0625,0 -1.65625,0 c 0.0049,-0.02937 -4.7e-4,-0.0517 0,-0.0625 0.06717,-0.003 0.06707,0 0.15625,0 0.192961,0 0.35173,0.0099 0.625,-0.03125 0.27327,-0.04114 0.789198,-0.196761 1.125,-0.59375 0.335802,-0.396989 0.380682,-0.786807 0.40625,-1.03125 C 72.244318,61.224307 72.25,61.028132 72.25,60.8125 l 0,-0.84375 a 1.4243847,1.4243847 0 0 0 -1.46875,-1.4375 z m -25.46875,6.0625 c 0.647193,0 0.909141,0.115754 1.09375,0.28125 0.184609,0.165496 0.386953,0.489116 0.53125,1.25 0.169007,0.891153 -0.229394,2.711677 -0.46875,3.0625 -0.02716,0.03981 -0.295131,0.306412 -0.59375,0.46875 -0.298619,0.162338 -0.648532,0.218666 -0.625,0.21875 0.331944,0.0011 -0.240499,-0.05619 -0.3125,-0.09375 -0.83149,-0.433724 -1.03125,-0.806193 -1.03125,-2.34375 0,-1.421203 0.237716,-2.081471 0.75,-2.59375 0.48416,-0.484167 -0.01488,-0.25 0.65625,-0.25 z M 21.25,65.3125 c 0.928399,0 1.750061,0.446093 2.1875,1.1875 0.07107,0.120448 0.256718,0.244034 0.34375,0.375 -0.75579,-0.183044 -1.520578,-0.334051 -2.4375,-0.4375 -0.795248,-0.08972 -1.303871,-0.431881 -1.46875,-0.59375 0.305915,-0.450996 0.439215,-0.53125 1.375,-0.53125 z M 75.8125,66.25 c 0.0053,0.219059 -0.07381,0.363348 0.125,0.75 0.106753,0.207613 0.346744,0.310054 0.5625,0.46875 -0.150857,0.499648 -0.330804,1.074423 -0.53125,1.71875 -0.259186,-0.685587 -0.502682,-1.337514 -0.71875,-1.96875 0.130069,-0.11162 0.289542,-0.104976 0.375,-0.25 0.168918,-0.286655 0.147321,-0.49115 0.1875,-0.71875 z m -16.9375,1.34375 0,2.6875 0,2.75 c -0.07484,0.0255 -0.135626,0.115202 -0.21875,0.15625 -0.01313,-0.0091 -0.01785,-0.02264 -0.03125,-0.03125 -0.679655,-0.436851 -1.073853,-0.3125 -1.46875,-0.3125 -0.30576,0 -0.347921,-0.06667 -0.25,0.03125 -0.07019,-0.07019 0.105661,0.311905 0.0625,-0.0625 -0.04316,-0.374405 -0.0625,-1.258392 -0.0625,-2.84375 l 0,-2.03125 1.0625,0 A 1.4243847,1.4243847 0 0 0 58.875,67.59375 z m 5.21875,0 c 0.14915,0.05888 0.325692,0.197323 0.4375,0.21875 0.08375,0.01605 0.145571,0.02207 0.21875,0.03125 l 0,2.5625 0,2.625 c -0.09417,0.03138 -0.175084,0.131555 -0.28125,0.1875 -0.113738,-0.07965 -0.208511,-0.208257 -0.3125,-0.25 l -0.0625,-3.5625 0,-0.03125 0,-1.78125 z m -36.65625,0.0625 c 0.04685,0.0201 0.08155,0.07895 0.125,0.09375 l 0,1.28125 C 27.350584,68.779924 27.235422,68.457915 26.96875,68.25 c -0.212804,-0.165916 -0.514051,-0.236071 -0.75,-0.375 l 0.75,-0.09375 a 1.4243847,1.4243847 0 0 0 0.46875,-0.125 z m 6.78125,0.0625 c 0.382503,-0.03724 0.712172,0.113156 0.6875,0.09375 0.04839,0.03806 0.514114,0.80207 0.65625,1.75 0.142136,0.94793 0.04786,2.053033 -0.1875,2.625 -0.195087,0.474108 -0.485634,0.687553 -0.75,0.78125 -0.264366,0.0937 -0.526028,0.08826 -0.84375,-0.125 -0.702634,-0.471622 -0.90625,-0.909405 -0.90625,-2.5625 0,-1.519215 0.329207,-2.102305 0.84375,-2.40625 0.08059,-0.04761 0.32684,-0.139392 0.5,-0.15625 z"
       transform="translate(0,2)"
       id="path3757"
       style="fill:#599227;fill-opacity:1" />
    <path
       d="m 70.816529,61.959865 -1.802831,0.05226 c -1.672434,0.06865 -1.829203,0.132838 -2.299264,0.679327 -0.443917,0.516081 -0.52256,0.785763 -0.52256,2.247007 l 0,1.672192 -0.940608,0 -0.966735,0 0.05226,0.888352 c 0.06429,0.888443 0.07826,0.902457 0.966735,0.966735 l 0.888352,0.05226 0,3.89307 0,3.866944 -0.627071,0 c -0.607508,0 -0.627073,0.02291 -0.627073,0.940607 l 0,0.966736 2.456032,-0.05226 2.482159,-0.07834 0.05226,-0.888352 0.07834,-0.888352 -0.757712,0 -0.731584,0 0,-3.893071 0,-3.89307 1.410912,0.02609 1.410911,0 1.855088,4.938191 1.82896,4.964318 -0.365792,0.757712 c -0.350684,0.717203 -0.427362,0.776465 -1.463168,0.836096 l -1.123503,0.07834 0,0.940608 0,0.966735 1.698319,-0.07834 c 1.337602,-0.06079 1.750433,-0.156626 2.090239,-0.496432 0.258873,-0.25888 1.229998,-2.850886 2.48216,-6.610383 1.870204,-5.615118 2.121141,-6.214072 2.586671,-6.322973 0.428742,-0.10029 0.520795,-0.253212 0.574816,-0.992864 l 0.05226,-0.888352 -2.220879,0 -2.220879,0 0,0.940608 c 0,0.868277 0.04021,0.940608 0.52256,0.940608 0.288846,0 0.548688,0.104537 0.548688,0.209024 0,0.156859 -1.658263,5.464546 -2.037984,6.531997 -0.08623,0.242427 -1.727674,-3.909859 -2.508287,-6.349102 -0.07985,-0.249599 0.02399,-0.369571 0.365791,-0.418048 0.403467,-0.05719 0.494602,-0.21909 0.548689,-0.966735 l 0.07834,-0.888352 -3.056976,0 -3.056974,0 0,-1.254144 c 0,-1.419147 0.228538,-1.672191 1.541551,-1.672191 0.73696,0 0.757712,-0.0143 0.757712,-0.862224 l 0,-0.862223 z m -25.291897,1.254143 c -2.537868,-0.0362 -4.421843,1.364969 -5.199471,3.893071 -1.081523,3.516025 0.459193,6.910524 3.605663,7.94291 0.875559,0.287282 2.983942,0.05903 3.9192,-0.418048 2.544899,-1.298314 3.732013,-5.012352 2.58667,-8.07355 -0.784792,-2.097538 -2.576963,-3.311098 -4.912062,-3.344383 z m 7.629373,0.02609 0.05226,1.646064 0.02612,1.619936 -0.862223,0.07834 c -0.850268,0.06296 -0.871028,0.07391 -0.757712,0.731584 0.192218,1.115602 0.270828,1.175759 0.91448,1.175759 l 0.627071,0 0.05226,3.840814 c 0.08564,4.357097 0.199636,4.757185 1.515423,5.408496 1.143042,0.56581 3.20948,0.595592 3.318255,0.05226 0.04047,-0.202185 0.04515,-0.622874 0,-0.940608 -0.07341,-0.517033 -0.157638,-0.574815 -0.888351,-0.574815 -0.536337,0 -0.978147,-0.142044 -1.254144,-0.418049 -0.386181,-0.386175 -0.418048,-0.70706 -0.418048,-3.89307 l 0,-3.475023 1.254144,0 1.228015,0 0.07834,-0.940608 0.07834,-0.940607 -1.3064,0 -1.332528,0 0,-1.672192 0,-1.69832 -1.175759,0 -1.149632,0 z m 7.159071,0 0,0.940608 c 0,1.037603 0.108851,1.125444 1.410911,1.149631 l 0.91448,0.02609 0,-1.04512 0,-1.071248 -1.175759,0 -1.149632,0 z m -39.610038,0.548683 c -1.466582,0.06698 -2.901178,0.735798 -3.814687,1.933472 -0.786928,1.031708 -0.917944,2.970657 -0.287408,4.206606 0.803932,1.575849 1.952845,2.170722 5.016575,2.560544 0.954462,0.121443 2.013219,0.347615 2.35152,0.522559 1.349458,0.697831 1.672091,2.122146 0.731584,3.239871 -1.480985,1.760058 -4.755286,1.185542 -6.166207,-1.097375 -0.433482,-0.701351 -0.555986,-0.75767 -1.515423,-0.75767 l -1.018992,0 0,2.429903 c 0,1.336265 0.08943,2.598343 0.209024,2.821824 0.248675,0.464634 1.352627,0.575225 1.619935,0.156768 0.09226,-0.144427 0.202294,-0.770329 0.26128,-1.384784 l 0.104512,-1.123504 0.888352,0.757712 c 1.191303,1.022086 2.118825,1.384784 3.631791,1.384784 1.504997,0 2.567115,-0.409537 3.527279,-1.332528 0.926955,-0.891069 1.306399,-1.825289 1.306399,-3.292128 0,-3.07036 -1.766034,-4.4443 -6.375229,-4.964317 -2.1212,-0.239324 -3.35113,-1.524471 -2.586672,-2.691184 0.59362,-0.905985 1.362284,-1.280272 2.665056,-1.280272 1.4126,0 2.696952,0.721459 3.396638,1.907344 0.396837,0.672581 0.512511,0.737344 1.3064,0.679327 l 0.862224,-0.07834 0.05226,-2.142495 0.05226,-2.142495 -0.940607,0 c -0.918452,0 -0.966737,0.01956 -0.966737,0.627072 0,0.346612 -0.04574,0.627071 -0.104511,0.627071 -0.05878,0 -0.477328,-0.265352 -0.940608,-0.600944 -0.968292,-0.701426 -2.125323,-1.018807 -3.266,-0.966735 z m 24.61257,1.358656 c 1.745776,0 2.672647,0.828504 3.030847,2.717311 0.254792,1.343489 -0.0573,3.216519 -0.679328,4.128223 -0.460146,0.674444 -1.670528,1.335228 -2.429903,1.332528 -0.199852,-6.36e-4 -0.619973,-0.120156 -0.940608,-0.287408 -1.263533,-0.659087 -1.828959,-1.782247 -1.828959,-3.605664 0,-1.63108 0.374922,-2.752577 1.201887,-3.579534 0.584297,-0.584306 0.851598,-0.705456 1.646064,-0.705456 z M 34.942795,66.40158 c -1.385695,-8.36e-4 -2.178231,0.278955 -2.847951,1.018992 -0.548145,0.605693 -0.757712,0.559758 -0.757712,-0.182896 l 0,-0.627072 -1.802832,0 -1.776704,0 0,0.940608 c 0,0.910291 0.0202,0.940607 0.627072,0.940607 l 0.627073,0 0,5.695904 0,5.669773 -0.627073,0 c -0.606863,0 -0.627072,0.03035 -0.627072,0.940608 l 0,0.940608 2.534416,0 2.534416,0 -0.07838,-0.88831 c -0.06045,-0.835736 -0.0894,-0.907907 -0.679329,-0.914479 l -0.627071,0 -0.07838,-1.619936 c -0.03378,-0.891545 -0.02429,-1.619935 0.02612,-1.619935 0.05042,0 0.414544,0.282089 0.78384,0.627071 1.824762,1.704582 4.976107,1.197365 6.375229,-1.018992 0.710439,-1.125409 0.965382,-2.200085 0.966737,-4.075966 0.0026,-3.613882 -1.73367,-5.824862 -4.572399,-5.826542 z m 24.116137,0.209024 0,0.836096 c 0,0.79358 0.03194,0.836095 0.627072,0.836095 l 0.627072,0 0,3.997584 0,3.997583 -0.627072,0 c -0.606864,0 -0.627072,0.03035 -0.627072,0.940608 l 0,0.940607 2.403776,0 2.429902,0 0,-0.91448 c 0,-0.859849 -0.04147,-0.957622 -0.574816,-1.018991 l -0.574815,-0.05226 -0.07834,-4.781423 -0.05226,-4.781423 -1.776704,0 -1.776703,0 z m 23.854858,0 c -0.57852,0 -0.702313,0.07549 -0.600945,0.339664 0.103551,0.269867 0.155873,0.279532 0.313537,0.05226 0.129904,-0.187244 0.1817,-0.03001 0.130639,0.496432 -0.05284,0.545276 -0.0059,0.783838 0.182896,0.783838 0.174753,0 0.285352,-0.279423 0.287408,-0.783838 0.0026,-0.585954 0.05753,-0.704688 0.209024,-0.470305 0.174026,0.269281 0.180145,0.261899 0.182896,-0.05226 0.0026,-0.280075 -0.150329,-0.365792 -0.705455,-0.365792 z m 2.429902,0 c -0.122312,0.04097 -0.243938,0.215044 -0.339663,0.574816 l -0.156768,0.574816 -0.209024,-0.574816 c -0.301137,-0.8626 -0.679328,-0.715622 -0.679328,0.26128 0,0.868277 0.288269,1.205868 0.313536,0.365792 l 0.02608,-0.470304 0.235151,0.470304 c 0.125373,0.259959 0.294039,0.470303 0.39192,0.470303 0.09789,0 0.173774,-0.210344 0.182896,-0.470303 0.01563,-0.44568 0.06087,-0.392865 0.313536,0.418048 0.167989,0.539273 0.313536,0.235912 0.313536,-0.679328 0,-0.679043 -0.188063,-1.008875 -0.39192,-0.940608 z m -51.263121,1.698321 c 0.641531,-0.06246 1.28902,0.06998 1.69832,0.391919 1.194379,0.939496 1.68383,4.139745 0.914479,6.009439 -0.665624,1.617628 -2.34774,2.203355 -3.684047,1.3064 -1.104766,-0.741542 -1.567679,-1.852496 -1.567679,-3.736303 0,-1.794488 0.525428,-3.016124 1.567679,-3.631791 0.304435,-0.179837 0.68633,-0.30219 1.071248,-0.339664 z"
       inkscape:connector-curvature="0"
       id="rect2974"
       style="fill:#ffffff;fill-opacity:1" />
    <path
       d="m 43.403689,60.031907 c 3.883929,-0.669643 6.607143,0.848215 6.607143,0.848215"
       inkscape:connector-curvature="0"
       id="path3767"
       style="fill:#59962e;fill-opacity:1;stroke:#59962e;stroke-width:1px;stroke-linecap:round;stroke-opacity:1" />
    <path
       d="m 42.912617,57.767267 c 4.732143,-1.026786 8.125,1.071429 8.125,1.071429"
       inkscape:connector-curvature="0"
       id="path37"
       style="fill:#4b8123;fill-opacity:1;stroke:#4b8123;stroke-width:1.39999998;stroke-linecap:round;stroke-miterlimit:4;stroke-opacity:1;stroke-dasharray:none" />
    <path
       d="m 42.573967,54.996238 c 5.267857,-1.294643 9.553571,1.026786 9.553571,1.026786"
       inkscape:connector-curvature="0"
       id="path39"
       style="fill:#3c721e;fill-opacity:1;stroke:#3b6f1d;stroke-width:1.79999995;stroke-linecap:round;stroke-miterlimit:4;stroke-opacity:1;stroke-dasharray:none" />
    <path
       d="m 47.299888,14.479146 c -1.305986,0.03816 -2.617411,0.180887 -3.937582,0.492197 a 1.4925211,1.4925211 0 0 0 0.683609,2.898497 c 8.998055,-2.121838 18.003575,3.416268 20.125415,12.414319 0.570447,2.419078 0.579752,4.980979 0.05469,7.41031 a 1.4861867,1.4861867 0 1 0 2.898496,0.57423 c 0.61846,-2.861412 0.617209,-5.791466 -0.05469,-8.640803 C 64.890641,20.386669 56.441788,14.211967 47.299888,14.479146 z m 0.437509,6.398569 c -0.65948,0.0058 -1.320269,0.05169 -1.996136,0.164066 a 1.4947742,1.4947742 0 1 0 0.464854,2.953186 c 5.62479,-0.935339 10.904749,2.824606 11.840088,8.449392 0.166982,1.004185 0.188049,2.02602 0.05469,3.035221 a 1.4907667,1.4907667 0 1 0 2.953185,0.410164 c 0.171877,-1.300605 0.160509,-2.64344 -0.05469,-3.937582 C 59.950423,25.64406 54.551351,21.110795 48.39366,20.877715 c -0.219916,-0.0083 -0.436439,-0.0019 -0.656264,0 z m -8.695492,3.746171 a 1.4861867,1.4861867 0 0 0 -0.875019,0.492198 c -4.756651,5.140499 -4.683151,13.156124 0.164067,18.211314 5.058068,5.275085 13.455773,5.440889 18.730855,0.382819 a 1.4906684,1.4906684 0 0 0 -2.023479,-2.1602 C 50.922617,45.49641 44.410198,45.364941 40.46381,41.24923 36.684781,37.308054 36.646005,31.147249 40.354438,27.139563 a 1.4861867,1.4861867 0 0 0 -1.148461,-2.515677 1.4861867,1.4861867 0 0 0 -0.164065,0 z m 8.859558,5.086043 c -2.435332,0 -4.402435,1.99445 -4.402435,4.429779 0,2.43533 1.967103,4.402435 4.402435,4.402435 2.43533,0 4.402434,-1.967105 4.402434,-4.402435 0,-2.435329 -1.967104,-4.429779 -4.402434,-4.429779 z"
       inkscape:connector-curvature="0"
       id="path3891"
       style="fill:#4b8123;fill-opacity:1;stroke:none" />
  </g>
</svg>
