/* XPM */
static char *locked[] = {
/* columns rows colors chars-per-pixel */
"24 24 33 1",
"  c #000000",
". c #353535",
"X c #434343",
"o c #8F8F8F",
"O c #939393",
"+ c #999999",
"@ c #9A9A9A",
"# c #A3A3A3",
"$ c #ACACAC",
"% c #B0B0B0",
"& c #B4B4B4",
"* c #B8B8B8",
"= c #BCBCBC",
"- c #C0C0C0",
"; c #C4C4C4",
": c #C8C8C8",
"> c #CCCCCC",
", c #CFCFCF",
"< c #D1D1D1",
"1 c #D2D2D2",
"2 c #D5D5D5",
"3 c #D7D7D7",
"4 c #D9D9D9",
"5 c #DDDDDD",
"6 c #E1E1E1",
"7 c #E3E3E3",
"8 c #E5E5E5",
"9 c #E6E6E6",
"0 c #E8E8E8",
"q c #EDEDED",
"w c #EEEEEE",
"e c #F6F6F6",
"r c None",
/* pixels */
"rrrrrrrrrrrrrrrrrrrrrrrr",
"rrrrrrrrrrrrrrrrrrrrrrrr",
"rrrrrrrrrrrrrrrrrrrrrrrr",
"rrrrrrrrrrrrrrrrrrrrrrrr",
"rrrrrrrrr#weeeew#rrrrrrr",
"rrrrrrrrr80888808rrrrrrr",
"rrrrrrrrr86X  X68rrrrrrr",
"rrrrrrrrr55rrrr55rrrrrrr",
"rrrrrrrrr44rrrr44rrrrrrr",
"rrrrrrrrr22rrrr22rrrrrrr",
"rrrrrrr@8<<wwww<<8@rrrrr",
"rrrrrrr2<>>>>>>>><2rrrrr",
"rrrrrrr<>;>;;>;>;>>rrrrr",
"rrrrrrr;;;;;;;;;;;;rrrrr",
"rrrrrrr==;=;;==;=;;rrrrr",
"rrrrrrr============rrrrr",
"rrrrrrr==&=&=&=&=&=rrrrr",
"rrrrrrr&&&&&&&&&&&&rrrrr",
"rrrrrrrO&$$&&$&$&$Orrrrr",
"rrrrrrr.o$$$$$$$$o.rrrrr",
"rrrrrrrrr        rrrrrrr",
"rrrrrrrrrrrrrrrrrrrrrrrr",
"rrrrrrrrrrrrrrrrrrrrrrrr",
"rrrrrrrrrrrrrrrrrrrrrrrr"
};
