/* XPM */
static char *x[] = {
/* columns rows colors chars-per-pixel */
"24 24 61 1",
"  c #000000",
". c #060200",
"X c #1D0502",
"o c #1D0503",
"O c #1F0A07",
"+ c #460C03",
"@ c #491009",
"# c #4E1911",
"$ c #7D0F01",
"% c #811709",
"& c #AA1806",
"* c #AB1806",
"= c #B12311",
"- c #902F23",
"; c #8F3023",
": c #CC1D07",
"> c #C5210A",
", c #CE220B",
"< c #CE2D17",
"1 c #D12610",
"2 c #D32A14",
"3 c #D62F19",
"4 c #D8331D",
"5 c #C83C2A",
"6 c #DB3722",
"7 c #D93A25",
"8 c #DE3C27",
"9 c #DE3D28",
"0 c #B14D3F",
"q c #B24E3F",
"w c #DB4432",
"e c #DE4936",
"r c #E0402B",
"t c #E34430",
"y c #E04834",
"u c #E54834",
"i c #E84D39",
"p c #EA513D",
"a c #AD5247",
"s c #E95440",
"d c #ED5542",
"f c #ED5643",
"g c #E45D4B",
"h c #C46A5D",
"j c #C56B5E",
"k c #DD6454",
"l c #D5675A",
"z c #DF695A",
"x c #EC614F",
"c c #E26D5E",
"v c #F06654",
"b c #D97163",
"n c #E0796C",
"m c #E97C6E",
"M c #F07161",
"N c #F07262",
"B c #E78276",
"V c #F18070",
"C c #F28070",
"Z c #F28071",
"A c None",
/* pixels */
"AAAAAAAAAAAAAAAAAAAAAAAA",
"AAAAAAAAAAAAAAAAAAAAAAAA",
"AAAAAAAAAAAAAAAAAAAAAAAA",
"AAAAAAAAAAAAAAAAAAAAAAAA",
"AAAAAAABAAAAAAAABAAAAAAA",
"AAAAAhmvZjAAAAjZvmjAAAAA",
"AAAAnMfffNnAAnNfffMnAAAA",
"AAAbxpppppxmmxpppppxbAAA",
"AAAA-iiiiiissiiiiii;AAAA",
"AAAAA#wuuuu. uuuuw#AAAAA",
"AAAAAAO5tttAAttt5OAAAAAA",
"AAAAAAayrrrAArrryaAAAAAA",
"AAAAAlg8888AA8889glAAAAA",
"AAAAce66666AA66666ezAAAA",
"AAAq7444444AA4444447qAAA",
"AAAA@<33333cc33333<@AAAA",
"AAAAAo=2222  2222=oAAAAA",
"AAAAAA.%111AA111%.AAAAAA",
"AAAAAAAA+>,kk,>+AAAAAAAA",
"AAAAAAAAAo&::&oAAAAAAAAA",
"AAAAAAAAAA.$$.AAAAAAAAAA",
"AAAAAAAAAAAAAAAAAAAAAAAA",
"AAAAAAAAAAAAAAAAAAAAAAAA",
"AAAAAAAAAAAAAAAAAAAAAAAA"
};
