<?xml version="1.0" encoding="UTF-8" standalone="no"?>
<!-- Created with Inkscape (http://www.inkscape.org/) -->
<svg
   xmlns:dc="http://purl.org/dc/elements/1.1/"
   xmlns:cc="http://web.resource.org/cc/"
   xmlns:rdf="http://www.w3.org/1999/02/22-rdf-syntax-ns#"
   xmlns:svg="http://www.w3.org/2000/svg"
   xmlns="http://www.w3.org/2000/svg"
   xmlns:sodipodi="http://sodipodi.sourceforge.net/DTD/sodipodi-0.dtd"
   xmlns:inkscape="http://www.inkscape.org/namespaces/inkscape"
   width="250px"
   height="290px"
   id="svg2"
   sodipodi:version="0.32"
   inkscape:version="0.44.1"
   sodipodi:docname="spiral.svg"
   sodipodi:docbase="/usr/share/apps/kdm/themes/debian-moreblue">
  <metadata
     id="metadata21">
    <rdf:RDF>
      <cc:Work
         rdf:about="">
        <dc:format>image/svg+xml</dc:format>
        <dc:type
           rdf:resource="http://purl.org/dc/dcmitype/StillImage" />
      </cc:Work>
    </rdf:RDF>
  </metadata>
  <sodipodi:namedview
     inkscape:window-height="583"
     inkscape:window-width="1005"
     inkscape:pageshadow="2"
     inkscape:pageopacity="0.0"
     guidetolerance="10.0"
     gridtolerance="10.0"
     objecttolerance="10.0"
     borderopacity="1.0"
     bordercolor="#666666"
     pagecolor="#ffffff"
     id="base"
     inkscape:zoom="1.3034483"
     inkscape:cx="125"
     inkscape:cy="145"
     inkscape:window-x="0"
     inkscape:window-y="279"
     inkscape:current-layer="svg2" />
  <defs
     id="defs4" />
  <g
     id="Layer">
    <g
       id="g2902">
      <path
         id="path2904"
         fill="#ffffff"
         stroke-width="0"
         d="M148.154 152.401L147.952 152.401L147.775 152.425L147.599 152.425L147.422 152.45L147.271 152.45L147.144 152.475L147.018 152.499L146.917 152.524L146.816 152.549L146.715 152.574L146.665 152.598L146.589 152.648L146.539 152.673L146.514 152.722L146.488 152.771L146.463 152.796L146.463 152.846L146.488 152.895L146.514 152.945L146.539 152.994L146.564 153.043L146.615 153.093L146.69 153.142L146.741 153.217L146.842 153.266L146.917 153.315L147.018 153.39L147.119 153.439L147.245 153.489L147.372 153.563L147.498 153.612L147.624 153.686L147.775 153.761L147.927 153.81L148.103 153.884L148.255 153.934L148.431 154.008L148.608 154.082L148.81 154.131L148.987 154.206L149.189 154.28L149.416 154.329L149.819 154.478L150.274 154.601L150.753 154.725L151.233 154.849L151.737 154.972L152.242 155.096L152.772 155.195L153.302 155.294L153.832 155.417L154.387 155.491L154.942 155.59C156.583 154.329 158.046 153.068 159.384 151.832C155.699 152.722 151.939 152.747 148.154 152.401Z" />
      <path
         id="path2906"
         fill="#ffffff"
         stroke-width="0"
         d="M172.506 146.466L173.011 145.773L173.49 145.081L173.945 144.364L174.374 143.672L174.803 142.93L175.206 142.213L175.585 141.496L175.938 140.754L176.266 140.012L176.569 139.27L176.847 138.504L177.124 137.737L177.352 136.995L177.553 136.229L177.705 135.437L177.856 134.671C177.251 137.613 175.635 140.16 174.096 142.856C165.617 148.073 173.289 139.74 174.096 136.575C164.961 147.826 172.834 143.325 172.506 146.466Z" />
      <path
         id="path2908"
         fill="#ffffff"
         stroke-width="0"
         d="M181.49 123.543L181.49 123.37L181.515 123.172L181.515 122.999L181.541 122.826L181.541 122.653L181.541 122.48L181.566 122.332L181.566 122.159L181.566 122.01L181.566 121.862L181.566 121.713L181.566 121.565L181.591 121.417L181.591 121.293L181.591 121.145L181.566 121.021L181.566 120.897L181.566 120.774L181.566 120.65L181.566 120.526L181.566 120.428L181.566 120.304L181.541 120.205L181.541 120.106L181.541 119.982L181.515 119.884L181.515 119.809L181.515 119.71L181.49 119.612L181.49 119.537L181.465 119.438L181.465 119.364L181.44 119.29L181.44 119.216L181.414 119.142L181.414 119.068L181.389 119.018L181.364 118.944L181.364 118.894L181.339 118.82L181.314 118.771L181.314 118.721L181.288 118.672L181.263 118.622L181.238 118.573L181.238 118.548L181.213 118.499L181.187 118.474L181.162 118.425L181.137 118.4L181.086 118.35L181.061 118.301L181.011 118.252L180.96 118.227L180.91 118.202L180.859 118.202L180.809 118.202L180.758 118.202L180.708 118.227L180.632 118.227L180.582 118.276L180.531 118.301L180.481 118.35L180.405 118.4L180.355 118.449L180.304 118.499L180.254 118.573L180.178 118.647L180.127 118.721L180.077 118.82L180.026 118.894L179.951 118.993L179.9 119.092L179.85 119.191L179.799 119.315L179.749 119.414L179.698 119.537L179.623 119.661L179.572 119.785L179.522 119.908L179.497 120.032L179.446 120.156L179.396 120.304L179.345 120.428L179.295 120.576L179.219 120.848L179.143 121.145C180.001 121.565 180.683 126.783 181.49 123.543Z" />
      <path
         id="path2910"
         fill="#ffffff"
         stroke-width="0"
         d="M130.968 14.197L131.423 14.271L131.877 14.346L132.356 14.42L132.811 14.494L133.013 14.519L133.24 14.568L133.467 14.593L133.669 14.642L133.871 14.667L134.072 14.717L134.249 14.741L134.451 14.791L134.628 14.815L134.779 14.865L134.93 14.914L135.082 14.939L135.233 14.989L135.334 15.038L135.46 15.063L135.561 15.112L135.637 15.162L135.713 15.211L135.738 15.236L135.763 15.261L135.788 15.285L135.814 15.285L135.814 15.31L135.839 15.335L135.839 15.359L135.839 15.384L135.839 15.434L135.839 15.458L135.814 15.483L135.788 15.508C138.463 14.939 139.044 14.42 130.968 14.197Z" />
      <path
         id="polygon2912"
         fill="#ffffff"
         stroke-width="0"
         d="M135.788 15.508L134.098 15.854L135.687 15.706L135.788 15.508Z" />
      <path
         id="path2914"
         fill="#ffffff"
         stroke-width="0"
         d="M211.268 126.585L211.293 127.252L211.293 127.895L211.268 128.514L211.243 129.132L211.218 129.7L211.167 130.294L211.092 130.838L211.016 131.382L210.915 131.901L210.814 132.445L210.713 132.94L210.587 133.434L210.334 134.423L210.032 135.388L209.704 136.327L209.35 137.292L208.972 138.232L208.568 139.196L208.164 140.185L207.76 141.224L207.559 141.768L207.357 142.312L207.155 142.856L206.953 143.424L203.041 145.353C199.836 151.461 203.344 149.211 201.048 154.082C196.026 158.459 185.856 167.732 182.601 168.572C180.203 168.523 184.19 165.828 184.72 164.764C178.033 169.265 179.345 171.54 169.099 174.285L168.797 173.617C143.511 185.288 108.408 162.193 108.862 130.665C108.584 132.668 108.08 132.173 107.525 132.989C106.238 116.768 115.171 100.472 130.262 93.845C145.025 86.674 162.311 89.617 172.885 99.261C167.081 91.818 155.523 83.905 141.82 84.647C128.394 84.869 115.852 93.227 111.663 102.277C104.799 106.531 103.992 118.622 101.014 120.848C96.976 149.878 108.584 162.415 128.218 177.153C131.322 179.205 129.076 179.502 129.505 181.06C122.994 178.068 117.013 173.543 112.092 168.028C114.717 171.738 117.518 175.397 121.152 178.241C114.994 176.213 106.767 163.627 104.395 163.132C114.994 181.728 147.422 195.748 164.406 188.8C156.532 189.072 146.564 188.948 137.732 185.758C134.022 183.879 128.975 180.021 129.883 179.304C153.05 187.761 176.973 185.709 197.035 169.982C202.133 166.075 207.71 159.448 209.325 159.374C206.902 162.935 209.729 161.08 207.861 164.245C212.934 156.209 205.666 160.956 213.136 150.373L215.886 154.082C214.852 147.406 224.34 139.32 223.356 128.786C225.526 125.546 225.779 132.247 223.482 139.666C226.687 131.431 224.34 130.096 225.148 123.321C226.031 125.596 227.192 128.019 227.798 130.442C225.703 122.48 229.943 117.04 230.977 112.416C229.943 111.971 227.772 115.927 227.268 106.531C227.343 102.451 228.428 104.404 228.857 103.39C228.025 102.945 225.88 99.805 224.567 93.821C225.526 92.411 227.091 97.48 228.403 97.678C227.57 92.906 226.132 89.271 226.082 85.611C222.321 77.921 224.744 86.625 221.691 82.297C217.703 70.057 225.022 79.454 225.526 73.89C231.583 82.52 235.04 95.873 236.63 101.387C235.419 94.661 233.45 88.108 231.053 81.803C232.92 82.569 228.1 67.931 233.476 77.624C227.722 56.976 208.947 37.689 191.66 28.614C193.78 30.518 196.455 32.891 195.496 33.262C186.891 28.243 188.405 27.872 187.168 25.745C180.178 22.951 179.724 25.968 175.08 25.745C161.882 18.896 159.333 19.613 147.195 15.335L147.75 17.857C138.993 14.989 137.555 18.945 128.092 17.857C127.511 17.412 131.12 16.274 134.098 15.854C125.644 16.942 126.022 14.222 117.77 16.151C119.789 14.741 121.959 13.826 124.13 12.639C117.24 13.035 107.676 16.571 110.629 13.357C99.3734 18.277 79.412 25.176 68.2074 35.463L67.8541 33.163C62.706 39.197 45.4449 51.19 44.0822 59.029L42.6942 59.35C40.0445 63.776 38.3032 68.796 36.1834 73.371C32.7009 79.206 31.0606 75.621 31.5653 76.536C24.676 90.186 21.2691 101.659 18.3166 111.08C20.4364 114.147 18.367 129.602 19.1746 141.965C15.7173 203.068 62.9332 262.365 114.515 276.064C122.085 278.71 133.315 278.611 142.905 278.883C131.599 275.718 130.161 277.201 119.158 273.443C111.234 269.783 109.493 265.604 103.865 260.832L106.086 264.689C95.0834 260.856 99.6762 259.966 90.7176 257.172L93.0897 254.13C89.5315 253.883 83.6264 248.245 82.0365 245.13L78.125 245.278C73.4312 239.59 70.9329 235.51 71.1095 232.321L69.8477 234.521C68.4093 232.123 52.5866 213.255 60.7881 217.657C59.274 216.272 57.2299 215.431 55.0344 211.5L56.7 209.62C52.7632 204.65 49.4321 198.246 49.6845 196.119C51.8043 198.913 53.2679 199.433 54.7064 199.903C44.713 175.645 44.1579 198.592 36.6124 175.199L38.2023 175.076C36.9657 173.271 36.2339 171.292 35.2497 169.364L35.931 162.564C28.7641 154.428 33.9374 127.945 34.9721 113.43C35.6787 107.52 40.9782 101.239 44.9906 91.372L42.5428 90.952C47.2114 82.965 69.2421 58.831 79.4625 60.067C84.4087 53.984 78.4783 60.067 77.5194 58.534C88.3707 47.506 91.7775 50.745 99.1211 48.767C107.02 44.167 92.3327 50.572 96.0675 47.011C109.745 43.599 105.758 39.246 123.574 37.516C125.467 38.554 119.209 39.123 117.644 40.483C129.025 35.018 153.68 36.279 169.68 43.524C188.253 52.006 209.123 77.154 209.931 100.818L210.864 101.041C210.41 110.462 212.353 121.318 208.972 131.308L211.268 126.585Z" />
      <path
         id="path2916"
         fill="#ffffff"
         stroke-width="0"
         d="M98.6668 158.508L98.0359 161.624C101.014 165.58 103.386 169.883 107.171 172.974C104.446 167.756 102.402 165.58 98.6668 158.508Z" />
      <path
         id="path2918"
         fill="#ffffff"
         stroke-width="0"
         d="M105.708 158.236L105.43 157.915L105.152 157.569L104.9 157.247L104.648 156.901L104.395 156.53L104.168 156.184L103.941 155.813L103.739 155.467L103.537 155.071L103.335 154.7L102.932 153.958L102.553 153.192L102.149 152.425C103.159 156.035 105.203 159.102 107.096 162.267L105.708 158.236Z" />
      <path
         id="path2920"
         fill="#ffffff"
         stroke-width="0"
         d="M230.372 131.679L229.715 133.311C228.504 141.817 225.88 150.224 221.817 158.038C226.283 149.804 229.16 140.803 230.372 131.679Z" />
      <path
         id="path2922"
         fill="#ffffff"
         stroke-width="0"
         d="M131.877 12.046L132.154 11.947L132.457 11.873L132.76 11.774L133.088 11.7L133.391 11.65L133.719 11.576L134.047 11.527L134.375 11.477L135.082 11.403L135.763 11.329L136.47 11.279L137.176 11.255L138.615 11.156L139.321 11.131L140.028 11.082L140.709 11.007L141.391 10.933L141.694 10.884L142.022 10.834L142.35 10.785L142.653 10.711C138.413 11.082 134.199 11.279 130.035 11.799L131.877 12.046Z" />
      <path
         id="path2924"
         fill="#ffffff"
         stroke-width="0"
         d="M24.2217 68.128L24.2469 68.425L24.2722 68.722L24.2722 69.019L24.2722 69.291L24.2722 69.563L24.2722 69.835L24.2469 70.082L24.2217 70.354L24.1965 70.601L24.1712 70.848L24.1208 71.071L24.0703 71.318L24.0198 71.541L23.9694 71.739L23.9189 71.961L23.8432 72.159L23.7927 72.357L23.717 72.555L23.6413 72.728L23.5908 72.901L23.5151 73.074L23.4394 73.247L23.3637 73.395L23.3132 73.544L23.2375 73.692L23.1618 73.816L23.0861 73.939L23.0356 74.063L22.9599 74.187L22.9095 74.286L22.859 74.385L22.8085 74.459L22.758 74.533L22.7076 74.607L22.6571 74.681L22.6319 74.731L22.6066 74.78L22.5814 74.83L22.5562 74.854L22.5562 74.879L22.5562 74.904L22.5562 74.904L22.5562 74.904L22.5814 74.904L22.6319 74.879L22.6571 74.854L22.7076 74.805L22.7833 74.755L22.8338 74.706L22.9347 74.657L22.9599 74.607L23.0104 74.582L23.0609 74.533L23.1366 74.508L23.1871 74.459L23.2375 74.409L23.3132 74.36L23.3637 74.31L23.4394 74.261L23.5151 74.211L23.5908 74.137L23.6665 74.088L23.7675 74.014L23.8432 73.964L23.9441 73.89L24.0451 73.816L24.1208 73.742L24.2217 73.667L24.3479 73.593L24.4488 73.519L24.575 73.445L24.676 73.371L24.8021 73.272L24.9283 73.198L25.0545 73.099L25.1807 73L25.3321 72.901L25.4835 72.802C28.7641 65.507 24.1712 70.799 24.2217 68.128Z" />
      <path
         id="path2926"
         fill="#ffffff"
         stroke-width="0"
         d="M16.9791 97.802L17.1053 97.406L17.2314 97.01L17.3576 96.64L17.4586 96.269L17.5595 95.922L17.6604 95.576L17.7614 95.23L17.8371 94.884L17.938 94.562L18.0137 94.241L18.0895 93.944L18.1652 93.623L18.2156 93.326L18.2913 93.029L18.4175 92.461L18.5185 91.917L18.6194 91.397L18.7203 90.878L18.8213 90.383L18.9222 89.889L18.9979 89.419L19.0989 88.949L19.1998 88.479C15.2631 93.4 17.3829 94.463 16.9791 97.802Z" />
    </g>
  </g>
</svg>
