/* XPM */
static char *x[] = {
/* columns rows colors chars-per-pixel */
"24 24 57 1",
"  c #760706",
". c #7E0907",
"X c #7F0907",
"o c #7D0D0A",
"O c #7C0E0B",
"+ c #900D0A",
"@ c #910D0A",
"# c #85120D",
"$ c #851716",
"% c #861716",
"& c #851D13",
"* c #8B1C12",
"= c #8B1D14",
"- c #A30C0A",
"; c #A5130D",
": c #A5130E",
"> c #B6120E",
", c #B7120E",
"< c #B8120E",
"1 c #BC1710",
"2 c #B71A12",
"3 c #8B2417",
"4 c #A32116",
"5 c #BB2A1C",
"6 c #9D332B",
"7 c #A5372C",
"8 c #A6362C",
"9 c #C01C13",
"0 c #C52016",
"q c #C6241B",
"w c #C92518",
"e c #C0281B",
"r c #CD291B",
"t c #D02E1E",
"y c #D22E1E",
"u c #CF3421",
"i c #CC3326",
"p c #D63221",
"a c #DA3723",
"s c #DF3B26",
"d c #E03F2B",
"f c #E34029",
"g c #E7452B",
"h c #EC492E",
"j c #ED4D32",
"k c #E44F3A",
"l c #F04E31",
"z c #D0524B",
"x c #D0534B",
"c c #F15C41",
"v c #F15D42",
"b c #EE725F",
"n c #F77C64",
"m c #E2918D",
"M c #EF9D93",
"N c #F5A597",
"B c None",
/* pixels */
"BBBBBBBBBBBBBBBBBBBBBBBB",
"BBBBBBBBBBBBBBBBBBBBBBBB",
"BBBBBBBBBBBBBBBBBBBBBBBB",
"BBBBBBBBBBBBBBBBBBBBBBBB",
"BBBBBBB BBBBBBBB BBBBBBB",
"BBBBB%.-.%BBBB%.-.%BBBBB",
"BBBBO@,<,@OBBO@,<,@OBBBB",
"BBB#:11111:OO:11111:#BBB",
"BBBBx99919922999999xBBBB",
"BBBBBmq0000BB0000qmBBBBB",
"BBBBBBBiwwwBBwwwiBBBBBBB",
"BBBBBB6errrBBrrre6BBBBBB",
"BBBBB=4ryyyBBpyyr43BBBBB",
"BBBB*5pppppBBppppp5*BBBB",
"BBB7uaaaaaaBBaaaaaap7BBB",
"BBBBMfsssss&&sssssdMBBBB",
"BBBBBBkffffBBffffkBBBBBB",
"BBBBBBBbgggBBgggbBBBBBBB",
"BBBBBBBBNjj33hjNBBBBBBBB",
"BBBBBBBBBBvllvBBBBBBBBBB",
"BBBBBBBBBBBnnBBBBBBBBBBB",
"BBBBBBBBBBBBBBBBBBBBBBBB",
"BBBBBBBBBBBBBBBBBBBBBBBB",
"BBBBBBBBBBBBBBBBBBBBBBBB"
};
